<svg width="103" height="25" viewBox="0 0 103 25" fill="none" xmlns="http://www.w3.org/2000/svg">
<path d="M94.679 3.85506C96.2544 3.85506 97.6449 4.20739 98.8505 4.91207C100.056 5.61675 100.988 6.59086 101.645 7.83441C102.303 9.07796 102.632 10.4873 102.632 12.0625C102.632 13.6791 102.132 15.1713 101.131 16.5392C100.131 17.9071 98.8916 18.9918 97.412 19.7932C95.9462 20.5808 94.5488 20.9746 93.2199 20.9746C91.6445 20.9746 90.254 20.6291 89.0484 19.9383C87.8566 19.2336 86.925 18.2595 86.2537 17.0159C85.5961 15.7724 85.2673 14.363 85.2673 12.7879C85.2673 11.1713 85.7605 9.679 86.7469 8.3111C87.747 6.92938 88.9868 5.84473 90.4663 5.05715C91.9459 4.25576 93.3501 3.85506 94.679 3.85506ZM93.4871 6.23852C92.7199 6.23852 92.0144 6.48032 91.3705 6.96393C90.7403 7.44753 90.2403 8.11075 89.8704 8.9536C89.5005 9.79645 89.3156 10.7429 89.3156 11.793C89.3156 13.0366 89.5005 14.1765 89.8704 15.2128C90.254 16.2353 90.8225 17.0574 91.576 17.6792C92.3432 18.2871 93.2884 18.5911 94.4118 18.5911C95.1653 18.5911 95.8571 18.3493 96.4873 17.8657C97.1312 17.3821 97.6381 16.7189 98.008 15.876C98.3778 15.0332 98.5628 14.0867 98.5628 13.0366C98.5628 11.7792 98.3778 10.6393 98.008 9.61683C97.6381 8.59436 97.0695 7.77914 96.3024 7.17118C95.5489 6.54941 94.6105 6.23852 93.4871 6.23852Z" fill="white"/>
<path d="M81.4778 16.933L82.0327 18.1766L78.2516 20.5186C77.5803 20.6982 76.9364 20.8157 76.3199 20.8709C75.7035 20.94 75.039 20.9746 74.3267 20.9746C72.6827 20.9746 71.2237 20.6222 69.9496 19.9175C68.6756 19.2129 67.6892 18.2457 66.9905 17.0159C66.2918 15.7724 65.9425 14.363 65.9425 12.7879C65.9425 11.1713 66.4631 9.679 67.5043 8.3111C68.5454 6.92938 69.84 5.84473 71.3881 5.05715C72.9498 4.25576 74.4294 3.85506 75.8268 3.85506C76.6761 3.85506 77.6762 3.95869 78.827 4.16594C79.9777 4.3732 80.8203 4.59428 81.3545 4.82917V9.76191H79.4229C78.2173 7.41298 76.6213 6.23852 74.6349 6.23852C73.7718 6.23852 72.9841 6.48032 72.2717 6.96393C71.573 7.44753 71.0182 8.11075 70.6072 8.9536C70.1962 9.79645 69.9907 10.7429 69.9907 11.793C69.9907 13.0228 70.1894 14.1558 70.5867 15.1921C70.9977 16.2145 71.6141 17.0367 72.4361 17.6584C73.2581 18.2664 74.2719 18.5704 75.4774 18.5704C75.5322 18.5704 75.7857 18.5704 76.2378 18.5704C76.6898 18.5704 77.1899 18.5289 77.7379 18.446V14.3009L74.4294 13.4926L75.1075 12.1454H83.4095V13.306L81.4778 14.9641V16.933Z" fill="white"/>
<path d="M55.6074 3.85506C57.1829 3.85506 58.5734 4.20739 59.7789 4.91207C60.9845 5.61675 61.9161 6.59086 62.5737 7.83441C63.2312 9.07796 63.56 10.4873 63.56 12.0625C63.56 13.6791 63.06 15.1713 62.0599 16.5392C61.0599 17.9071 59.82 18.9918 58.3405 19.7932C56.8746 20.5808 55.4773 20.9746 54.1484 20.9746C52.573 20.9746 51.1825 20.6291 49.9769 19.9383C48.785 19.2336 47.8535 18.2595 47.1822 17.0159C46.5246 15.7724 46.1958 14.363 46.1958 12.7879C46.1958 11.1713 46.689 9.679 47.6754 8.3111C48.6754 6.92938 49.9152 5.84473 51.3948 5.05715C52.8744 4.25576 54.2786 3.85506 55.6074 3.85506ZM54.4156 6.23852C53.6484 6.23852 52.9428 6.48032 52.299 6.96393C51.6688 7.44753 51.1688 8.11075 50.7989 8.9536C50.429 9.79645 50.244 10.7429 50.244 11.793C50.244 13.0366 50.429 14.1765 50.7989 15.2128C51.1825 16.2353 51.751 17.0574 52.5045 17.6792C53.2716 18.2871 54.2169 18.5911 55.3403 18.5911C56.0938 18.5911 56.7856 18.3493 57.4158 17.8657C58.0596 17.3821 58.5665 16.7189 58.9364 15.876C59.3063 15.0332 59.4913 14.0867 59.4913 13.0366C59.4913 11.7792 59.3063 10.6393 58.9364 9.61683C58.5665 8.59436 57.998 7.77914 57.2308 7.17118C56.4773 6.54941 55.5389 6.23852 54.4156 6.23852Z" fill="white"/>
<path d="M42.7253 20.5601H29.6148V19.3994L31.5464 17.8657V6.2178L29.2654 5.61676L29.9436 4.26958H37.2181V5.43022L35.2659 6.96393V18.9849H39.8895L43.0746 14.3423L44.2048 14.819V20.9331L42.7253 20.5601Z" fill="white"/>
<path fill-rule="evenodd" clip-rule="evenodd" d="M10.9568 0.0472122C11.2603 -0.0157374 11.5733 -0.0157374 11.8767 0.0472122C12.2275 0.119978 12.541 0.2971 12.7903 0.437912C12.8135 0.451025 12.8362 0.463824 12.8583 0.476194L21.3063 5.20986C21.3297 5.22295 21.3538 5.23632 21.3784 5.25002C21.6423 5.3966 21.9741 5.58091 22.2289 5.85976C22.4491 6.10085 22.6158 6.3866 22.7178 6.69789C22.8358 7.05794 22.8344 7.43996 22.8333 7.7438C22.8332 7.77219 22.8331 7.7999 22.8331 7.82685V17.1732C22.8331 17.2001 22.8332 17.2278 22.8333 17.2562C22.8344 17.56 22.8358 17.9421 22.7178 18.3021C22.6158 18.6134 22.4491 18.8992 22.2289 19.1402C21.9741 19.4191 21.6423 19.6034 21.3784 19.75C21.3538 19.7637 21.3297 19.7771 21.3063 19.7901L12.8583 24.5238C12.8362 24.5362 12.8135 24.549 12.7903 24.5621C12.541 24.7029 12.2275 24.88 11.8767 24.9528C11.5733 25.0157 11.2603 25.0157 10.9568 24.9528C10.606 24.88 10.2925 24.7029 10.0432 24.5621C10.02 24.549 9.99732 24.5362 9.97524 24.5238L1.52716 19.7901C1.50381 19.7771 1.47974 19.7637 1.45509 19.75C1.19122 19.6034 0.859437 19.4191 0.604649 19.1402C0.38437 18.8992 0.217668 18.6134 0.115691 18.3021C-0.0022591 17.9421 -0.000879245 17.56 0.000218211 17.2562C0.000320825 17.2278 0.00042099 17.2001 0.00042099 17.1732V7.82685C0.00042099 7.7999 0.000320825 7.77219 0.000218211 7.7438C-0.000879245 7.43997 -0.0022591 7.05794 0.115691 6.69789C0.217667 6.3866 0.384369 6.10085 0.604649 5.85977C0.859433 5.58091 1.19121 5.39661 1.45508 5.25002C1.47974 5.23632 1.5038 5.22295 1.52716 5.20987L9.97524 0.476195C9.99732 0.463825 10.02 0.451027 10.0432 0.437914C10.2925 0.297101 10.606 0.119979 10.9568 0.0472122ZM10.2751 2.94255V10.5431L3.49288 6.74281L10.2751 2.94255ZM2.28369 8.69964V16.3003L9.066 12.5L2.28369 8.69964ZM10.2751 14.4569L3.49282 18.2572L10.2751 22.0575V14.4569ZM12.5584 22.0575L19.3407 18.2572L12.5584 14.4569V22.0575ZM13.7675 12.5L20.5498 16.3003V8.69964L13.7675 12.5ZM19.3406 6.7428L12.5584 2.94255V10.5431L19.3406 6.7428Z" fill="white"/>
</svg>
