<svg width="23" height="25" viewBox="0 0 23 25" fill="none" xmlns="http://www.w3.org/2000/svg">
<path fill-rule="evenodd" clip-rule="evenodd" d="M10.9568 0.0472122C11.2603 -0.0157374 11.5733 -0.0157374 11.8767 0.0472122C12.2275 0.119978 12.541 0.2971 12.7903 0.437912C12.8135 0.451025 12.8362 0.463824 12.8583 0.476194L21.3063 5.20986C21.3297 5.22295 21.3538 5.23632 21.3784 5.25002C21.6423 5.3966 21.9741 5.58091 22.2289 5.85976C22.4491 6.10085 22.6158 6.3866 22.7178 6.69789C22.8358 7.05794 22.8344 7.43996 22.8333 7.7438C22.8332 7.77219 22.8331 7.7999 22.8331 7.82685V17.1732C22.8331 17.2001 22.8332 17.2278 22.8333 17.2562C22.8344 17.56 22.8358 17.9421 22.7178 18.3021C22.6158 18.6134 22.4491 18.8992 22.2289 19.1402C21.9741 19.4191 21.6423 19.6034 21.3784 19.75C21.3538 19.7637 21.3297 19.7771 21.3063 19.7901L12.8583 24.5238C12.8362 24.5362 12.8135 24.549 12.7903 24.5621C12.541 24.7029 12.2275 24.88 11.8767 24.9528C11.5733 25.0157 11.2603 25.0157 10.9568 24.9528C10.606 24.88 10.2925 24.7029 10.0432 24.5621C10.02 24.549 9.99732 24.5362 9.97524 24.5238L1.52716 19.7901C1.50381 19.7771 1.47974 19.7637 1.45509 19.75C1.19122 19.6034 0.859437 19.4191 0.604649 19.1402C0.38437 18.8992 0.217668 18.6134 0.115691 18.3021C-0.0022591 17.9421 -0.000879245 17.56 0.000218211 17.2562C0.000320825 17.2278 0.00042099 17.2001 0.00042099 17.1732V7.82685C0.00042099 7.7999 0.000320825 7.77219 0.000218211 7.7438C-0.000879245 7.43997 -0.0022591 7.05794 0.115691 6.69789C0.217667 6.3866 0.384369 6.10085 0.604649 5.85977C0.859433 5.58091 1.19121 5.39661 1.45508 5.25002C1.47974 5.23632 1.5038 5.22295 1.52716 5.20987L9.97524 0.476195C9.99732 0.463825 10.02 0.451027 10.0432 0.437914C10.2925 0.297101 10.606 0.119979 10.9568 0.0472122ZM10.2751 2.94255V10.5431L3.49288 6.74281L10.2751 2.94255ZM2.28369 8.69964V16.3003L9.066 12.5L2.28369 8.69964ZM10.2751 14.4569L3.49282 18.2572L10.2751 22.0575V14.4569ZM12.5584 22.0575L19.3407 18.2572L12.5584 14.4569V22.0575ZM13.7675 12.5L20.5498 16.3003V8.69964L13.7675 12.5ZM19.3406 6.7428L12.5584 2.94255V10.5431L19.3406 6.7428Z" fill="white"/>
</svg>
